<!-- Generated by IcoMoon.io -->
<svg version="1.1" xmlns="http://www.w3.org/2000/svg" width="48" height="48" viewBox="0 0 48 48">
<title>cloud-check</title>
<path d="M41.825 24.117c0.114-0.521 0.175-1.062 0.175-1.617 0-4.142-3.358-7.5-7.5-7.5-0.667 0-1.313 0.088-1.928 0.251-1.162-3.626-4.56-6.251-8.572-6.251-4.094 0-7.549 2.734-8.64 6.477-1.066-0.31-2.193-0.477-3.36-0.477-6.627 0-12 5.373-12 12s5.373 12 12 12h28.5c4.142 0 7.5-3.358 7.5-7.5 0-3.69-2.665-6.758-6.175-7.383zM19.5 36l-7.5-7.5 3-3 4.5 4.5 10.5-10.5 3 3-13.5 13.5z"></path>
</svg>
